#!OML:ASF H:\ManfredETheater\Project 1\Capture day 1\Session 1\subject.ASF
:FULLY-SPECIFIED
:DEGREES
181
root -0.661257 16.616 -20.6681 -174.411 -2.92178 -175.911
lowerback 9.26502 0.577985 2.52788
upperback -1.01174 1.09529 4.31127
thorax -6.3103 0.431063 2.95788
lowerneck -17.0981 -1.04924 -2.61521
upperneck 11.8515 -0.369751 -3.36345
head 6.40836 -0.63458 -0.703078
rclavicle -5.36719e-015 -5.725e-014
rhumerus -39.8499 11.6123 -92.1131
rradius 97.3499
rwrist -6.50163
rhand -24.149 10.0959
rfingers 7.12502
rthumb 2.33342 -19.8711
lclavicle -5.36719e-015 -5.725e-014
lhumerus -62.6648 -10.3334 98.7115
lradius 104.811
lwrist 18.4492
lhand -22.4911 -17.8176
lfingers 7.12502
lthumb 3.93451 12.1258
rfemur -4.96741 -0.580549 35.4788
rtibia 37.8246
rfoot -29.5579 -12.8664
rtoes -19.082
lfemur -49.4236 4.62334 -7.61787
ltibia 106.054
lfoot -10.3152 -9.09628
ltoes -8.8329
182
root -0.658068 16.6426 -21.1206 -173.846 -2.55627 -175.666
lowerback 8.84838 0.985719 3.04591
upperback -1.23758 1.68478 4.14797
thorax -6.31146 0.702236 2.41136
lowerneck -16.9848 -1.3272 -2.8475
upperneck 11.9419 -0.767175 -2.77191
head 6.41823 -0.77941 -0.515182
rclavicle -6.16232e-015 -3.81667e-014
rhumerus -38.8867 13.0603 -93.2848
rradius 99.8681
rwrist -7.16442
rhand -24.0676 10.4417
rfingers 7.12502
rthumb 2.41204 -19.5244
lclavicle -6.16232e-015 -3.81667e-014
lhumerus -65.0853 -11.4421 99.0091
lradius 106.146
lwrist 18.3894
lhand -21.7922 -17.6319
lfingers 7.12502
lthumb 4.60943 12.2979
rfemur -2.60707 -0.322244 35.6581
rtibia 35.3384
rfoot -28.5208 -12.271
rtoes -20.9387
lfemur -51.9519 4.82736 -8.62293
ltibia 103.546
lfoot -10.8135 -8.32094
ltoes -9.42121
183
root -0.655363 16.6848 -21.5844 -173.191 -2.20544 -175.538
lowerback 8.30261 1.38963 3.50593
upperback -1.5018 2.25479 3.88567
thorax -6.26286 0.966745 1.80498
lowerneck -16.8761 -1.63988 -3.09329
upperneck 12.0702 -1.22137 -2.0959
head 6.44535 -0.945726 -0.304065
rclavicle 1.15295e-014 2.14687e-014
rhumerus -38.1076 14.5994 -94.4065
rradius 102.319
rwrist -7.54755
rhand -23.9665 10.8585
rfingers 7.12502
rthumb 2.50974 -19.1065
lclavicle 1.15295e-014 2.14687e-014
lhumerus -67.5154 -12.433 99.1841
lradius 107.424
lwrist 17.9619
lhand -21.182 -17.4494
lfingers 7.12502
lthumb 5.19866 12.4668
rfemur -0.271975 0.0593567 35.7138
rtibia 32.6864
rfoot -26.9843 -11.5681
rtoes -23.0341
lfemur -54.2161 4.87925 -9.72497
ltibia 100.541
lfoot -11.276 -7.6287
ltoes -9.92096
184
root -0.652437 16.7421 -22.0587 -172.487 -1.92339 -175.533
lowerback 7.66978 1.76615 3.88737
upperback -1.78326 2.77102 3.54342
thorax -6.16759 1.20814 1.17744
lowerneck -16.7999 -1.97208 -3.34211
upperneck 12.2262 -1.70677 -1.39777
head 6.49191 -1.12676 -0.0892196
rclavicle 1.13307e-014 -1.19271e-014
rhumerus -37.4873 16.2333 -95.4543
rradius 104.661
rwrist -7.63
rhand -23.8428 11.3533
rfingers 7.12502
rthumb 2.62918 -18.6102
lclavicle 1.13307e-014 -1.19271e-014
lhumerus -69.8684 -13.2356 99.2073
lradius 108.557
lwrist 17.337
lhand -20.6935 -17.2728
lfingers 7.12502
lthumb 5.67028 12.6314
rfemur 2.03603 0.44893 35.6399
rtibia 29.9061
rfoot -24.9605 -10.6869
rtoes -25.1758
lfemur -56.1724 4.74385 -10.8888
ltibia 97.0536
lfoot -11.7256 -7.04253
ltoes -10.3431
185
root -0.648561 16.8129 -22.5421 -171.776 -1.73443 -175.626
lowerback 7.00085 2.10102 4.18448
upperback -2.07214 3.2158 3.15306
thorax -6.04895 1.41712 0.567075
lowerneck -16.7805 -2.30684 -3.61126
upperneck 12.43 -2.19298 -0.70173
head 6.56881 -1.31113 0.126903
rclavicle -3.97569e-016 -4.21423e-014
rhumerus -37.0322 17.9527 -96.4164
rradius 106.878
rwrist -7.42887
rhand -23.6505 11.9076
rfingers 7.12502
rthumb 2.81485 -18.0536
lclavicle -3.97569e-016 -4.21423e-014
lhumerus -72.1017 -13.8042 99.0759
lradius 109.504
lwrist 16.7107
lhand -20.3464 -17.1018
lfingers 7.12502
lthumb 6.00537 12.7931
rfemur 4.3236 0.756512 35.4517
rtibia 27.0208
rfoot -22.4628 -9.56282
rtoes -27.0671
lfemur -57.7835 4.43525 -12.0533
ltibia 93.1141
lfoot -12.1169 -6.60426
ltoes -10.5894
186
root -0.643782 16.8944 -23.0337 -171.109 -1.65116 -175.779
lowerback 6.31264 2.38119 4.43218
upperback -2.3291 3.57422 2.73957
thorax -5.87854 1.58557 -0.0189797
lowerneck -16.8168 -2.63128 -3.88044
upperneck 12.6421 -2.66117 -0.0522093
head 6.6621 -1.49159 0.328783
rclavicle 1.50082e-014 1.98785e-014
rhumerus -36.6985 19.7486 -97.2857
rradius 108.949
rwrist -6.9985
rhand -23.3724 12.5241
rfingers 7.12502
rthumb 3.08344 -17.4334
lclavicle 1.50082e-014 1.98785e-014
lhumerus -74.1433 -14.1299 98.7864
lradius 110.242
lwrist 16.2475
lhand -20.1397 -16.9349
lfingers 7.12502
lthumb 6.20494 12.9542
rfemur 6.62457 0.911139 35.1765
rtibia 24.0299
rfoot -19.4876 -8.19499
rtoes -28.5142
lfemur -59.0035 3.98172 -13.1615
ltibia 88.7671
lfoot -12.4821 -6.35154
ltoes -10.8915
187
root -0.638451 16.9836 -23.5317 -170.526 -1.67515 -175.957
lowerback 5.69036 2.59919 4.63681
upperback -2.56347 3.84443 2.34212
thorax -5.72117 1.71098 -0.549562
lowerneck -16.9066 -2.9342 -4.15392
upperneck 12.8784 -3.08985 0.519473
head 6.77506 -1.66068 0.509055
rclavicle -1.94809e-014 -2.62396e-014
rhumerus -36.5237 21.6035 -98.0647
rradius 110.873
rwrist -6.4009
rhand -23.0121 13.1802
rfingers 7.12502
rthumb 3.43142 -16.7719
lclavicle -1.94809e-014 -2.62396e-014
lhumerus -75.9973 -14.1972 98.3827
lradius 110.765
lwrist 16.0556
lhand -20.0562 -16.7569
lfingers 7.12502
lthumb 6.28559 13.1298
rfemur 8.97442 0.874277 34.8348
rtibia 20.9152
rfoot -15.9918 -6.65168
rtoes -29.391
lfemur -59.806 3.40873 -14.1679
ltibia 84.0717
lfoot -12.8225 -6.32997
ltoes -11.1234
188
root -0.632853 17.0763 -24.0348 -170.058 -1.77921 -176.129
lowerback 5.14563 2.76051 4.81962
upperback -2.75315 4.03728 1.97901
thorax -5.56334 1.7988 -1.02229
lowerneck -17.0337 -3.20916 -4.42943
upperneck 13.112 -3.46928 1.00951
head 6.89492 -1.81323 0.667535
rclavicle -1.98785e-015 -1.03368e-014
rhumerus -36.4863 23.4849 -98.7616
rradius 112.645
rwrist -5.70762
rhand -22.5871 13.8423
rfingers 7.12502
rthumb 3.84183 -16.1028
lclavicle -1.98785e-015 -1.03368e-014
lhumerus -77.6294 -14.0369 97.8893
lradius 111.073
lwrist 16.1835
lhand -20.0634 -16.5558
lfingers 7.12502
lthumb 6.27864 13.3311
rfemur 11.4147 0.670319 34.4464
rtibia 17.6349
rfoot -11.8889 -5.08069
rtoes -29.6327
lfemur -60.1874 2.76813 -15.0479
ltibia 79.1068
lfoot -13.1535 -6.57059
ltoes -11.2715
189
root -0.627238 17.1679 -24.5414 -169.716 -1.9231 -176.285
lowerback 4.70126 2.87833 4.97501
upperback -2.89757 4.17365 1.66057
thorax -5.4203 1.85984 -1.42934
lowerneck -17.1681 -3.45719 -4.68007
upperneck 13.3175 -3.80172 1.38652
head 7.00612 -1.95164 0.79006
rclavicle -2.03754e-015 -2.5842e-014
rhumerus -36.5876 25.345 -99.3922
rradius 114.259
rwrist -5.00805
rhand -22.1186 14.4817
rfingers 7.12502
rthumb 4.29426 -15.4548
lclavicle -2.03754e-015 -2.5842e-014
lhumerus -79.0351 -13.6882 97.3431
lradius 111.176
lwrist 16.6143
lhand -20.1234 -16.3142
lfingers 7.12502
lthumb 6.22065 13.5745
rfemur 13.9773 0.376949 34.019
rtibia 14.1343
rfoot -7.02798 -3.6854
rtoes -29.3012
lfemur -60.1668 2.10955 -15.8094
ltibia 73.9589
lfoot -13.5007 -7.06495
ltoes -11.4216
190
root -0.622015 17.2549 -25.0505 -169.498 -2.07024 -176.435
lowerback 4.35683 2.96643 5.08611
upperback -2.99489 4.27265 1.38664
thorax -5.29166 1.90482 -1.76516
lowerneck -17.3059 -3.68101 -4.91274
upperneck 13.4946 -4.0899 1.66403
head 7.10708 -2.07647 0.881918
rclavicle -9.79014e-015 8.74653e-015
rhumerus -36.8284 27.1367 -99.9729
rradius 115.713
rwrist -4.38314
rhand -21.6578 15.0726
rfingers 7.12502
rthumb 4.73924 -14.8544
lclavicle -9.79014e-015 8.74653e-015
lhumerus -80.2063 -13.1979 96.7823
lradius 111.077
lwrist 17.2637
lhand -20.2266 -16.0268
lfingers 7.12502
lthumb 6.12106 13.8648
rfemur 16.7031 0.0763461 33.5471
rtibia 10.3279
rfoot -1.34626 -2.6528
rtoes -28.5913
lfemur -59.7783 1.47061 -16.485
ltibia 68.7284
lfoot -13.8844 -7.7737
ltoes -11.4988
191
root -0.616842 17.3339 -25.5605 -169.388 -2.18633 -176.579
lowerback 4.10505 3.04035 5.14729
upperback -3.05141 4.35557 1.15437
thorax -5.1797 1.9446 -2.03218
lowerneck -17.4306 -3.88293 -5.1151
upperneck 13.6354 -4.33986 1.84368
head 7.19142 -2.19002 0.941323
rclavicle 1.90833e-014 6.36111e-015
rhumerus -37.2056 28.8081 -100.525
rradius 116.999
rwrist -3.90545
rhand -21.2491 15.5913
rfingers 7.12502
rthumb 5.13384 -14.3265
lclavicle 1.90833e-014 6.36111e-015
lhumerus -81.1528 -12.6146 96.2352
lradius 110.801
lwrist 18.0084
lhand -20.3592 -15.6803
lfingers 7.12502
lthumb 5.99301 14.2149
rfemur 19.4298 0.096002 33.137
rtibia 6.52349
rfoot 4.89477 -2.32673
rtoes -27.4469
lfemur -59.0936 0.893068 -17.0911
ltibia 63.5635
lfoot -14.3336 -8.62043
ltoes -11.6369
192
root -0.611251 17.4031 -26.0704 -169.369 -2.2483 -176.72
lowerback 3.94654 3.11154 5.14425
upperback -3.0804 4.4379 0.962668
thorax -5.09907 1.98671 -2.22588
lowerneck -17.5361 -4.06347 -5.29165
upperneck 13.7537 -4.55375 1.93919
head 7.26229 -2.29271 0.973297
rclavicle -1.14301e-015 -4.77083e-015
rhumerus -37.7319 30.3142 -101.071
rradius 118.114
rwrist -3.63379
rhand -20.9164 16.0186
rfingers 7.12502
rthumb 5.45502 -13.8912
lclavicle -1.14301e-015 -4.77083e-015
lhumerus -81.9029 -11.9724 95.7335
lradius 110.378
lwrist 18.7026
lhand -20.505 -15.2772
lfingers 7.12502
lthumb 5.85229 14.622
rfemur 22.233 0.165161 32.7121
rtibia 2.5611
rfoot 11.6095 -2.30006
rtoes -25.8331
lfemur -58.1703 0.410585 -17.6525
ltibia 58.5601
lfoot -14.8078 -9.50944
ltoes -11.8525
193
root -0.606399 17.4395 -26.5755 -169.42 -2.25255 -176.847
lowerback 3.84543 3.18459 5.10128
upperback -3.07718 4.52471 0.804786
thorax -5.02208 2.03362 -2.36494
lowerneck -17.6244 -4.22126 -5.44172
upperneck 13.8471 -4.73343 1.97476
head 7.31931 -2.38318 0.985535
rclavicle -8.79622e-015 2.98177e-014
rhumerus -38.3693 31.623 -101.615
rradius 119.045
rwrist -3.59943
rhand -20.6713 16.3383
rfingers 7.12502
rthumb 5.69173 -13.5652
lclavicle -8.79622e-015 2.98177e-014
lhumerus -82.453 -11.3056 95.2815
lradius 109.839
lwrist 19.203
lhand -20.6515 -14.845
lfingers 7.12502
lthumb 5.71085 15.058
rfemur 23.3319 0.283956 32.2757
rtibia 2.06122
rfoot 16.6678 -2.14165
rtoes -23.9181
lfemur -57.1942 0.0404343 -18.1831
ltibia 53.9157
lfoot -15.2625 -10.3164
ltoes -12.13
